<svg xmlns="http://www.w3.org/2000/svg" viewBox="0 0 500 500"><defs><style>.cls-1{fill:#6ee1ff;}.cls-2{fill:#05cdff;}.cls-3{fill:#fff;}.cls-4{fill:#c8e6eb;}.cls-5{fill:#41a0d7;}.cls-6{fill:#ffa50a;}.cls-7{fill:#fffad7;}.cls-8{fill:#50555a;}.cls-9{fill:#ffc305;}</style></defs><title>2476311</title><g id="OBJECTS"><path class="cls-1" d="M107.72,165c15.34-5.39,27.65-17.3,34.42-32.38C153.71,106.87,179.6,89.37,209,90.44a69.22,69.22,0,0,1,41,15.3,54.29,54.29,0,0,0,47.5,10.66,98.9,98.9,0,0,1,28-3C369.24,115,405.4,144.75,418,185a51.58,51.58,0,0,0,22,28.12,54.07,54.07,0,0,1,24.74,51.64c-2.79,26.69-24.91,47.44-51.13,48a51.45,51.45,0,0,1-17.33-2.58,47.91,47.91,0,0,0-34.6,1.56,99.23,99.23,0,0,1-62.1,6c-29.86-6.79-61.15,3-82.65,25.35a104.22,104.22,0,0,1-79.8,32.17C80.45,372.83,35.41,324.08,36.24,266,36.9,218.82,66.8,179.41,107.72,165Z"/><rect class="cls-2" x="178.92" y="125.51" width="162.95" height="214.75"/><rect class="cls-3" x="159.28" y="142.61" width="162.95" height="214.75"/><rect class="cls-4" x="176.62" y="206.8" width="53.59" height="61.24"/><rect class="cls-4" x="241.08" y="206.8" width="51.02" height="9.16"/><rect class="cls-4" x="241.08" y="258.88" width="65.82" height="9.16"/><rect class="cls-4" x="241.08" y="241.52" width="65.82" height="9.17"/><rect class="cls-4" x="241.08" y="224.16" width="65.82" height="9.17"/><path class="cls-5" d="M181.21,159.13h9.08c7.65,0,11.09,4.27,11.09,9.13a8.16,8.16,0,0,1-4.64,7.71v.11a8.73,8.73,0,0,1,6.94,8.74c0,5.91-4.27,10.33-12.36,10.33H181.21Zm8.53,15.64c4.43,0,6.78-2.25,6.78-5.85,0-3.34-2-5.74-6.67-5.74h-3.77v11.59Zm1.31,16.34c4.7,0,7.65-1.81,7.65-6.23,0-3.72-2.78-6.07-7.1-6.07h-5.52v12.3Z"/><path class="cls-5" d="M211,159.13h4.87V191H229v4.15H211Z"/><path class="cls-5" d="M233.14,177.28c0-10.93,7.49-18.47,17.76-18.47s17.71,7.7,17.71,18.47c0,11.2-7.65,18.42-17.71,18.42C240.68,195.7,233.14,188.43,233.14,177.28Zm30.33,0c0-8.25-4.59-14.32-12.57-14.32-7.6,0-12.62,5.68-12.62,14.32s5,14.27,12.62,14.27S263.47,186,263.47,177.28Z"/><path class="cls-5" d="M304.79,192.91a28.12,28.12,0,0,1-12.18,2.79c-11.1,0-18.15-7.49-18.15-18,0-11,7.6-18.91,19-18.91a27.21,27.21,0,0,1,10,1.91v4.54a21.36,21.36,0,0,0-9.73-2.3c-9.12,0-14.15,5.9-14.15,14.32,0,8.74,5.19,14.27,13.44,14.27a16.79,16.79,0,0,0,6.95-1.32V178h4.8Z"/><rect class="cls-4" x="176.62" y="278.74" width="130.28" height="22.46"/><rect class="cls-4" x="176.62" y="311.63" width="130.28" height="9.2"/><rect class="cls-4" x="176.62" y="328.22" width="130.28" height="9.2"/><rect class="cls-6" x="230.92" y="299.93" width="182.25" height="21.41" transform="matrix(-0.64, 0.76, -0.76, -0.64, 767.14, 264.75)"/><polygon class="cls-7" points="271.48 387.2 254.68 395.95 250.73 395.19 249.31 391.43 255.11 373.39 271.48 387.2"/><polygon class="cls-8" points="254.68 395.95 246.49 400.22 249.31 391.43 254.68 395.95"/><rect class="cls-9" x="231.03" y="306.47" width="182.25" height="8.53" transform="translate(-123.08 356.65) rotate(-49.85)"/><path class="cls-8" d="M381,222.18h8.06a5.19,5.19,0,0,1,5.19,5.19v11a5.19,5.19,0,0,1-5.19,5.19H381a0,0,0,0,1,0,0V222.18A0,0,0,0,1,381,222.18Z" transform="translate(-40.31 379.04) rotate(-49.85)"/></g></svg>